# xmcd CD database file
#
# Track frame offsets:
#	150
#	19300
#	39287
#	64662
#	81842
#	98517
#	118325
#	135750
#
# Disc length: 2109 seconds
#
# Revision: 0
# Processed by: cddbd v1.4PL0 Copyright (c) Steve Scherf et al.
# Submitted via: CDex 1.40Release
#
DISCID=5b083b08
DTITLE=Jean Shy - Ready for Love
DYEAR=1900
DGENRE=Blues
TTITLE0=Ready for Love
TTITLE1=What a wonderful Time in my Life
TTITLE2=One Day
TTITLE3=I wounldn´t wanna be like you
TTITLE4=We like the same Thangs
TTITLE5=Put back my Heart the way you found it
TTITLE6=Jesus for me
TTITLE7=Living the Blues
EXTD=ID3G: 0
EXTT0=
EXTT1=
EXTT2=
EXTT3=
EXTT4=
EXTT5=
EXTT6=
EXTT7=
PLAYORDER=
